<?xml version="1.0" encoding="UTF-8" standalone="no"?>
<!-- Created with Inkscape (http://www.inkscape.org/) -->

<svg
   xmlns:dc="http://purl.org/dc/elements/1.1/"
   xmlns:cc="http://creativecommons.org/ns#"
   xmlns:rdf="http://www.w3.org/1999/02/22-rdf-syntax-ns#"
   xmlns:svg="http://www.w3.org/2000/svg"
   xmlns="http://www.w3.org/2000/svg"
   xmlns:sodipodi="http://sodipodi.sourceforge.net/DTD/sodipodi-0.dtd"
   xmlns:inkscape="http://www.inkscape.org/namespaces/inkscape"
   id="svg2"
   version="1.1"
   inkscape:version="0.48+devel r10221"
   width="1000"
   height="1000"
   xml:space="preserve"
   sodipodi:docname="moirecam-icon.svg"
   inkscape:export-filename="/Users/em/proj/moireinst/webcam/icons/moirecam-icon-16.png"
   inkscape:export-xdpi="1.4400001"
   inkscape:export-ydpi="1.4400001"><metadata
     id="metadata8"><rdf:RDF><cc:Work
         rdf:about=""><dc:format>image/svg+xml</dc:format><dc:type
           rdf:resource="http://purl.org/dc/dcmitype/StillImage" /><dc:title></dc:title></cc:Work></rdf:RDF></metadata><defs
     id="defs6"><clipPath
       clipPathUnits="userSpaceOnUse"
       id="clipPath16"><path
         d="M 0,800 800,800 800,0 0,0 0,800 z"
         id="path18" /></clipPath></defs><sodipodi:namedview
     pagecolor="#ffffff"
     bordercolor="#666666"
     borderopacity="1"
     objecttolerance="10"
     gridtolerance="10"
     guidetolerance="10"
     inkscape:pageopacity="0"
     inkscape:pageshadow="2"
     inkscape:window-width="1280"
     inkscape:window-height="778"
     id="namedview4"
     showgrid="false"
     inkscape:snap-global="true"
     inkscape:snap-grids="true"
     inkscape:snap-to-guides="false"
     showguides="false"
     inkscape:zoom="0.24607316"
     inkscape:cx="-41.427623"
     inkscape:cy="549.74563"
     inkscape:window-x="0"
     inkscape:window-y="0"
     inkscape:window-maximized="1"
     inkscape:current-layer="g10"><inkscape:grid
       type="xygrid"
       id="grid794" /></sodipodi:namedview><g
     id="g10"
     inkscape:groupmode="layer"
     inkscape:label="camera-icons-film-movie-free-stock-vector"
     transform="matrix(1.25,0,0,-1.25,0,1000)"><rect
       style="opacity:0.75;fill:#007be1;fill-opacity:1;stroke:#000000;stroke-width:0.80000341;stroke-opacity:1"
       id="rect24"
       width="800"
       height="800"
       x="-1.1271539e-13"
       y="-800"
       transform="scale(1,-1)"
       ry="34.58213"
       inkscape:export-filename="/Users/em/proj/moireinst/webcam/icons/icon512.png"
       inkscape:export-xdpi="46.029999"
       inkscape:export-ydpi="46.029999" /><g
       id="g12"
       style="fill:#ffffff"
       transform="matrix(1.0623028,0,0,1.0623028,-47.678581,-107.50414)"><g
         id="g14"
         clip-path="url(#clipPath16)"
         style="fill:#ffffff"><g
           id="g20"
           transform="translate(431.2178,457.9766)"
           style="fill:#ffffff"><path
             d="m 24.153699,-12.765035 c 53.77404,0 97.367731,43.597969 97.367731,97.362377 0,53.774038 -43.593691,97.366658 -97.367731,97.366658 -53.768688,0 -97.363447,-43.59262 -97.363447,-97.366658 0,-53.764408 43.594759,-97.362377 97.363447,-97.362377 m -217.637769,-1.897379 c 53.77404,0 97.36345,43.591549 97.36345,97.365588 0,53.765476 -43.58941,97.362376 -97.36345,97.362376 -53.77404,0 -97.3506,-43.5969 -97.3506,-97.362376 0,-53.774039 43.57656,-97.365588 97.3506,-97.365588 m 393.27209,-255.820766 126.0114,0 0,177.554171 -126.0114,0 0,-177.554171 z m -72.54556,232.903473 -425.72765,0 c -25.30052,0 -45.82281,-20.511592 -45.82281,-45.815323 l 0,-202.36671 c 0,-25.30373 20.52229,-45.8196 45.82281,-45.8196 l 425.72765,0 c 25.30694,0 45.82174,20.51587 45.82174,45.8196 l 0,202.36671 c 0,25.303731 -20.5148,45.815323 -45.82174,45.815323"
             style="fill:#ffffff;fill-opacity:1;fill-rule:nonzero;stroke:none"
             id="path22"
             inkscape:connector-curvature="0" /></g></g></g><text
       xml:space="preserve"
       style="font-size:43.46259308px;font-style:normal;font-weight:normal;line-height:125%;letter-spacing:0px;word-spacing:0px;fill:#ffffff;fill-opacity:1;stroke:none;font-family:Sans"
       x="23.24375"
       y="-640.09106"
       id="text796"
       sodipodi:linespacing="125%"
       transform="scale(1,-1)"><tspan
         sodipodi:role="line"
         id="tspan798"
         x="23.24375"
         y="-640.09106"
         style="font-size:156.46533203px;font-style:normal;font-variant:normal;font-weight:500;font-stretch:normal;text-align:start;line-height:125%;writing-mode:lr-tb;text-anchor:start;fill:#ffffff;font-family:DINPro;-inkscape-font-specification:DINPro Medium">OSC 22222</tspan></text>
</g></svg>